<svg width="25" height="25" viewBox="0 0 25 25" fill="none" xmlns="http://www.w3.org/2000/svg">
<path d="M14.234 22.8004C16.8485 20.4994 21.5 15.7984 21.5 11.4844C21.5 9.09743 20.5518 6.80824 18.864 5.12041C17.1761 3.43259 14.8869 2.48438 12.5 2.48438C10.1131 2.48437 7.82387 3.43259 6.13604 5.12041C4.44821 6.80824 3.5 9.09743 3.5 11.4844C3.5 15.7984 8.15 20.4994 10.766 22.8004C11.2432 23.2263 11.8604 23.4617 12.5 23.4617C13.1396 23.4617 13.7568 23.2263 14.234 22.8004ZM9.5 11.4844C9.5 10.6887 9.81607 9.92566 10.3787 9.36305C10.9413 8.80045 11.7044 8.48438 12.5 8.48438C13.2956 8.48438 14.0587 8.80045 14.6213 9.36305C15.1839 9.92566 15.5 10.6887 15.5 11.4844C15.5 12.28 15.1839 13.0431 14.6213 13.6057C14.0587 14.1683 13.2956 14.4844 12.5 14.4844C11.7044 14.4844 10.9413 14.1683 10.3787 13.6057C9.81607 13.0431 9.5 12.28 9.5 11.4844Z" fill="white"/>
</svg>
