<svg width="25" height="25" viewBox="0 0 25 25" fill="none" xmlns="http://www.w3.org/2000/svg">
<path d="M22.5 9.59237V17.7344C22.5001 18.5645 22.1824 19.3632 21.6123 19.9666C21.0422 20.57 20.2628 20.9324 19.434 20.9794L19.25 20.9844H5.75C4.91986 20.9844 4.12117 20.6668 3.51777 20.0967C2.91437 19.5266 2.552 18.7472 2.505 17.9184L2.5 17.7344V9.59237L12.152 14.6484C12.2594 14.7046 12.3788 14.734 12.5 14.734C12.6212 14.734 12.7406 14.7046 12.848 14.6484L22.5 9.59237ZM5.75 4.98438H19.25C20.0556 4.98428 20.8325 5.28337 21.43 5.82364C22.0276 6.36391 22.4032 7.10686 22.484 7.90837L12.5 13.1384L2.516 7.90837C2.59352 7.13869 2.94305 6.42189 3.50175 5.88684C4.06045 5.35178 4.79168 5.03356 5.564 4.98938L5.75 4.98438Z" fill="white"/>
</svg>
